<svg width="18" height="19" xmlns="http://www.w3.org/2000/svg" xmlns:xlink="http://www.w3.org/1999/xlink" xml:space="preserve" overflow="hidden"><g transform="translate(-68 -37)"><path d="M13.0745 5.35174C13.0528 3.0755 14.9344 1.97847 15.0192 1.92648 13.9627 0.377539 12.3142 0.165499 11.7272 0.140715 10.3259 5.625e-06 8.99236 0.966861 8.28089 0.966861 7.57135 0.966861 6.47272 0.162149 5.31142 0.18503 3.78231 0.206292 2.37376 1.07273 1.58649 2.44046-4.5e-05 5.19519 1.18095 9.27496 2.72812 11.5098 3.48326 12.601 4.38582 13.8321 5.56935 13.7877 6.711 13.7429 7.14085 13.0513 8.51772 13.0513 9.89571 13.0513 10.2827 13.7877 11.4902 13.7649 12.7153 13.7429 13.4943 12.6503 14.2448 11.5545 15.1123 10.2853 15.4695 9.05668 15.4904 8.99287 15.464 8.98327 13.0993 8.07543 13.0745 5.35175L13.0745 5.35175Z" fill="#FFFFFF" fill-rule="evenodd" transform="matrix(1 0 0 1.05556 68.8381 41.4448)"/><path d="M2.80908 2.87497C3.43803 2.11265 3.86004 1.0548 3.74442 0 2.83914 0.0359651 1.74148 0.604296 1.09302 1.36424 0.510125 2.03861-6.75e-06 3.11547 0.138319 4.14819 1.1482 4.22672 2.17981 3.63583 2.80908 2.87497L2.80908 2.87497Z" fill="#FFFFFF" fill-rule="evenodd" transform="matrix(1 0 0 1.05556 76.8391 37)"/></g></svg>