<svg width="1692" height="960" xmlns="http://www.w3.org/2000/svg" xmlns:xlink="http://www.w3.org/1999/xlink" version="1.1" baseProfile="full" viewBox="0 0 1692 960">
<rect width="1692" height="960" x="0" y="0" id="0" fill="#100C2A" fill-opacity="1"></rect>
<path d="M82.76 911.5L1624.32 911.5" fill="none" stroke="#484753"></path>
<path d="M82.76 883.5L1624.32 883.5" fill="none" stroke="#484753"></path>
<path d="M82.76 856.5L1624.32 856.5" fill="none" stroke="#484753"></path>
<path d="M82.76 829.5L1624.32 829.5" fill="none" stroke="#484753"></path>
<path d="M82.76 801.5L1624.32 801.5" fill="none" stroke="#484753"></path>
<path d="M82.76 774.5L1624.32 774.5" fill="none" stroke="#484753"></path>
<path d="M82.76 746.5L1624.32 746.5" fill="none" stroke="#484753"></path>
<path d="M82.76 719.5L1624.32 719.5" fill="none" stroke="#484753"></path>
<path d="M82.76 691.5L1624.32 691.5" fill="none" stroke="#484753"></path>
<path d="M82.76 664.5L1624.32 664.5" fill="none" stroke="#484753"></path>
<path d="M82.76 636.5L1624.32 636.5" fill="none" stroke="#484753"></path>
<path d="M82.76 609.5L1624.32 609.5" fill="none" stroke="#484753"></path>
<path d="M82.76 581.5L1624.32 581.5" fill="none" stroke="#484753"></path>
<path d="M82.76 554.5L1624.32 554.5" fill="none" stroke="#484753"></path>
<path d="M82.76 527.5L1624.32 527.5" fill="none" stroke="#484753"></path>
<path d="M82.76 499.5L1624.32 499.5" fill="none" stroke="#484753"></path>
<path d="M82.76 472.5L1624.32 472.5" fill="none" stroke="#484753"></path>
<path d="M82.76 444.5L1624.32 444.5" fill="none" stroke="#484753"></path>
<path d="M82.76 417.5L1624.32 417.5" fill="none" stroke="#484753"></path>
<path d="M82.76 389.5L1624.32 389.5" fill="none" stroke="#484753"></path>
<path d="M82.76 362.5L1624.32 362.5" fill="none" stroke="#484753"></path>
<path d="M82.76 334.5L1624.32 334.5" fill="none" stroke="#484753"></path>
<path d="M82.76 307.5L1624.32 307.5" fill="none" stroke="#484753"></path>
<path d="M82.76 279.5L1624.32 279.5" fill="none" stroke="#484753"></path>
<path d="M82.76 252.5L1624.32 252.5" fill="none" stroke="#484753"></path>
<path d="M82.76 224.5L1624.32 224.5" fill="none" stroke="#484753"></path>
<path d="M82.76 197.5L1624.32 197.5" fill="none" stroke="#484753"></path>
<path d="M82.76 170.5L1624.32 170.5" fill="none" stroke="#484753"></path>
<path d="M82.76 142.5L1624.32 142.5" fill="none" stroke="#484753"></path>
<path d="M82.76 115.5L1624.32 115.5" fill="none" stroke="#484753"></path>
<path d="M82.76 87.5L1624.32 87.5" fill="none" stroke="#484753"></path>
<path d="M82.76 60.5L1624.32 60.5" fill="none" stroke="#484753"></path>
<text dominant-baseline="central" text-anchor="middle" style="font-size:12px;font-family:Microsoft YaHei;" y="-6" transform="translate(82.76 45)" fill="#B9B8CE">比率值</text>
<path d="M82.76 911.5L1624.32 911.5" fill="none" stroke="#B9B8CE" stroke-linecap="round"></path>
<path d="M83.5 911.2L83.5 916.2" fill="none" stroke="#B9B8CE"></path>
<path d="M136.5 911.2L136.5 916.2" fill="none" stroke="#B9B8CE"></path>
<path d="M189.5 911.2L189.5 916.2" fill="none" stroke="#B9B8CE"></path>
<path d="M242.5 911.2L242.5 916.2" fill="none" stroke="#B9B8CE"></path>
<path d="M295.5 911.2L295.5 916.2" fill="none" stroke="#B9B8CE"></path>
<path d="M348.5 911.2L348.5 916.2" fill="none" stroke="#B9B8CE"></path>
<path d="M401.5 911.2L401.5 916.2" fill="none" stroke="#B9B8CE"></path>
<path d="M455.5 911.2L455.5 916.2" fill="none" stroke="#B9B8CE"></path>
<path d="M508.5 911.2L508.5 916.2" fill="none" stroke="#B9B8CE"></path>
<path d="M561.5 911.2L561.5 916.2" fill="none" stroke="#B9B8CE"></path>
<path d="M614.5 911.2L614.5 916.2" fill="none" stroke="#B9B8CE"></path>
<path d="M667.5 911.2L667.5 916.2" fill="none" stroke="#B9B8CE"></path>
<path d="M720.5 911.2L720.5 916.2" fill="none" stroke="#B9B8CE"></path>
<path d="M774.5 911.2L774.5 916.2" fill="none" stroke="#B9B8CE"></path>
<path d="M827.5 911.2L827.5 916.2" fill="none" stroke="#B9B8CE"></path>
<path d="M880.5 911.2L880.5 916.2" fill="none" stroke="#B9B8CE"></path>
<path d="M933.5 911.2L933.5 916.2" fill="none" stroke="#B9B8CE"></path>
<path d="M986.5 911.2L986.5 916.2" fill="none" stroke="#B9B8CE"></path>
<path d="M1039.5 911.2L1039.5 916.2" fill="none" stroke="#B9B8CE"></path>
<path d="M1092.5 911.2L1092.5 916.2" fill="none" stroke="#B9B8CE"></path>
<path d="M1146.5 911.2L1146.5 916.2" fill="none" stroke="#B9B8CE"></path>
<path d="M1199.5 911.2L1199.5 916.2" fill="none" stroke="#B9B8CE"></path>
<path d="M1252.5 911.2L1252.5 916.2" fill="none" stroke="#B9B8CE"></path>
<path d="M1305.5 911.2L1305.5 916.2" fill="none" stroke="#B9B8CE"></path>
<path d="M1358.5 911.2L1358.5 916.2" fill="none" stroke="#B9B8CE"></path>
<path d="M1411.5 911.2L1411.5 916.2" fill="none" stroke="#B9B8CE"></path>
<path d="M1465.5 911.2L1465.5 916.2" fill="none" stroke="#B9B8CE"></path>
<path d="M1518.5 911.2L1518.5 916.2" fill="none" stroke="#B9B8CE"></path>
<path d="M1571.5 911.2L1571.5 916.2" fill="none" stroke="#B9B8CE"></path>
<path d="M1624.5 911.2L1624.5 916.2" fill="none" stroke="#B9B8CE"></path>
<text dominant-baseline="central" text-anchor="end" style="font-size:12px;font-family:Microsoft YaHei;" transform="translate(74.76 911.2)" fill="#B9B8CE">9.5</text>
<text dominant-baseline="central" text-anchor="end" style="font-size:12px;font-family:Microsoft YaHei;" transform="translate(74.76 883.7419)" fill="#B9B8CE">10</text>
<text dominant-baseline="central" text-anchor="end" style="font-size:12px;font-family:Microsoft YaHei;" transform="translate(74.76 856.2839)" fill="#B9B8CE">10.5</text>
<text dominant-baseline="central" text-anchor="end" style="font-size:12px;font-family:Microsoft YaHei;" transform="translate(74.76 828.8258)" fill="#B9B8CE">11</text>
<text dominant-baseline="central" text-anchor="end" style="font-size:12px;font-family:Microsoft YaHei;" transform="translate(74.76 801.3677)" fill="#B9B8CE">11.5</text>
<text dominant-baseline="central" text-anchor="end" style="font-size:12px;font-family:Microsoft YaHei;" transform="translate(74.76 773.9097)" fill="#B9B8CE">12</text>
<text dominant-baseline="central" text-anchor="end" style="font-size:12px;font-family:Microsoft YaHei;" transform="translate(74.76 746.4516)" fill="#B9B8CE">12.5</text>
<text dominant-baseline="central" text-anchor="end" style="font-size:12px;font-family:Microsoft YaHei;" transform="translate(74.76 718.9935)" fill="#B9B8CE">13</text>
<text dominant-baseline="central" text-anchor="end" style="font-size:12px;font-family:Microsoft YaHei;" transform="translate(74.76 691.5355)" fill="#B9B8CE">13.5</text>
<text dominant-baseline="central" text-anchor="end" style="font-size:12px;font-family:Microsoft YaHei;" transform="translate(74.76 664.0774)" fill="#B9B8CE">14</text>
<text dominant-baseline="central" text-anchor="end" style="font-size:12px;font-family:Microsoft YaHei;" transform="translate(74.76 636.6194)" fill="#B9B8CE">14.5</text>
<text dominant-baseline="central" text-anchor="end" style="font-size:12px;font-family:Microsoft YaHei;" transform="translate(74.76 609.1613)" fill="#B9B8CE">15</text>
<text dominant-baseline="central" text-anchor="end" style="font-size:12px;font-family:Microsoft YaHei;" transform="translate(74.76 581.7032)" fill="#B9B8CE">15.5</text>
<text dominant-baseline="central" text-anchor="end" style="font-size:12px;font-family:Microsoft YaHei;" transform="translate(74.76 554.2452)" fill="#B9B8CE">16</text>
<text dominant-baseline="central" text-anchor="end" style="font-size:12px;font-family:Microsoft YaHei;" transform="translate(74.76 526.7871)" fill="#B9B8CE">16.5</text>
<text dominant-baseline="central" text-anchor="end" style="font-size:12px;font-family:Microsoft YaHei;" transform="translate(74.76 499.329)" fill="#B9B8CE">17</text>
<text dominant-baseline="central" text-anchor="end" style="font-size:12px;font-family:Microsoft YaHei;" transform="translate(74.76 471.871)" fill="#B9B8CE">17.5</text>
<text dominant-baseline="central" text-anchor="end" style="font-size:12px;font-family:Microsoft YaHei;" transform="translate(74.76 444.4129)" fill="#B9B8CE">18</text>
<text dominant-baseline="central" text-anchor="end" style="font-size:12px;font-family:Microsoft YaHei;" transform="translate(74.76 416.9548)" fill="#B9B8CE">18.5</text>
<text dominant-baseline="central" text-anchor="end" style="font-size:12px;font-family:Microsoft YaHei;" transform="translate(74.76 389.4968)" fill="#B9B8CE">19</text>
<text dominant-baseline="central" text-anchor="end" style="font-size:12px;font-family:Microsoft YaHei;" transform="translate(74.76 362.0387)" fill="#B9B8CE">19.5</text>
<text dominant-baseline="central" text-anchor="end" style="font-size:12px;font-family:Microsoft YaHei;" transform="translate(74.76 334.5806)" fill="#B9B8CE">20</text>
<text dominant-baseline="central" text-anchor="end" style="font-size:12px;font-family:Microsoft YaHei;" transform="translate(74.76 307.1226)" fill="#B9B8CE">20.5</text>
<text dominant-baseline="central" text-anchor="end" style="font-size:12px;font-family:Microsoft YaHei;" transform="translate(74.76 279.6645)" fill="#B9B8CE">21</text>
<text dominant-baseline="central" text-anchor="end" style="font-size:12px;font-family:Microsoft YaHei;" transform="translate(74.76 252.2065)" fill="#B9B8CE">21.5</text>
<text dominant-baseline="central" text-anchor="end" style="font-size:12px;font-family:Microsoft YaHei;" transform="translate(74.76 224.7484)" fill="#B9B8CE">22</text>
<text dominant-baseline="central" text-anchor="end" style="font-size:12px;font-family:Microsoft YaHei;" transform="translate(74.76 197.2903)" fill="#B9B8CE">22.5</text>
<text dominant-baseline="central" text-anchor="end" style="font-size:12px;font-family:Microsoft YaHei;" transform="translate(74.76 169.8323)" fill="#B9B8CE">23</text>
<text dominant-baseline="central" text-anchor="end" style="font-size:12px;font-family:Microsoft YaHei;" transform="translate(74.76 142.3742)" fill="#B9B8CE">23.5</text>
<text dominant-baseline="central" text-anchor="end" style="font-size:12px;font-family:Microsoft YaHei;" transform="translate(74.76 114.9161)" fill="#B9B8CE">24</text>
<text dominant-baseline="central" text-anchor="end" style="font-size:12px;font-family:Microsoft YaHei;" transform="translate(74.76 87.4581)" fill="#B9B8CE">24.5</text>
<text dominant-baseline="central" text-anchor="end" style="font-size:12px;font-family:Microsoft YaHei;" transform="translate(74.76 60)" fill="#B9B8CE">25</text>
<text dominant-baseline="central" text-anchor="middle" style="font-size:12px;font-family:Microsoft YaHei;" xml:space="preserve" y="6" transform="translate(82.76 919.2)" fill="#B9B8CE">Day 1</text>
<text dominant-baseline="central" text-anchor="middle" style="font-size:12px;font-family:Microsoft YaHei;" xml:space="preserve" y="6" transform="translate(135.9172 919.2)" fill="#B9B8CE">Day 2</text>
<text dominant-baseline="central" text-anchor="middle" style="font-size:12px;font-family:Microsoft YaHei;" xml:space="preserve" y="6" transform="translate(189.0745 919.2)" fill="#B9B8CE">Day 3</text>
<text dominant-baseline="central" text-anchor="middle" style="font-size:12px;font-family:Microsoft YaHei;" xml:space="preserve" y="6" transform="translate(242.2317 919.2)" fill="#B9B8CE">Day 4</text>
<text dominant-baseline="central" text-anchor="middle" style="font-size:12px;font-family:Microsoft YaHei;" xml:space="preserve" y="6" transform="translate(295.389 919.2)" fill="#B9B8CE">Day 5</text>
<text dominant-baseline="central" text-anchor="middle" style="font-size:12px;font-family:Microsoft YaHei;" xml:space="preserve" y="6" transform="translate(348.5462 919.2)" fill="#B9B8CE">Day 6</text>
<text dominant-baseline="central" text-anchor="middle" style="font-size:12px;font-family:Microsoft YaHei;" xml:space="preserve" y="6" transform="translate(401.7034 919.2)" fill="#B9B8CE">Day 7</text>
<text dominant-baseline="central" text-anchor="middle" style="font-size:12px;font-family:Microsoft YaHei;" xml:space="preserve" y="6" transform="translate(454.8607 919.2)" fill="#B9B8CE">Day 8</text>
<text dominant-baseline="central" text-anchor="middle" style="font-size:12px;font-family:Microsoft YaHei;" xml:space="preserve" y="6" transform="translate(508.0179 919.2)" fill="#B9B8CE">Day 9</text>
<text dominant-baseline="central" text-anchor="middle" style="font-size:12px;font-family:Microsoft YaHei;" xml:space="preserve" y="6" transform="translate(561.1752 919.2)" fill="#B9B8CE">Day 10</text>
<text dominant-baseline="central" text-anchor="middle" style="font-size:12px;font-family:Microsoft YaHei;" xml:space="preserve" y="6" transform="translate(614.3324 919.2)" fill="#B9B8CE">Day 11</text>
<text dominant-baseline="central" text-anchor="middle" style="font-size:12px;font-family:Microsoft YaHei;" xml:space="preserve" y="6" transform="translate(667.4897 919.2)" fill="#B9B8CE">Day 12</text>
<text dominant-baseline="central" text-anchor="middle" style="font-size:12px;font-family:Microsoft YaHei;" xml:space="preserve" y="6" transform="translate(720.6469 919.2)" fill="#B9B8CE">Day 13</text>
<text dominant-baseline="central" text-anchor="middle" style="font-size:12px;font-family:Microsoft YaHei;" xml:space="preserve" y="6" transform="translate(773.8041 919.2)" fill="#B9B8CE">Day 14</text>
<text dominant-baseline="central" text-anchor="middle" style="font-size:12px;font-family:Microsoft YaHei;" xml:space="preserve" y="6" transform="translate(826.9614 919.2)" fill="#B9B8CE">Day 15</text>
<text dominant-baseline="central" text-anchor="middle" style="font-size:12px;font-family:Microsoft YaHei;" xml:space="preserve" y="6" transform="translate(880.1186 919.2)" fill="#B9B8CE">Day 16</text>
<text dominant-baseline="central" text-anchor="middle" style="font-size:12px;font-family:Microsoft YaHei;" xml:space="preserve" y="6" transform="translate(933.2759 919.2)" fill="#B9B8CE">Day 17</text>
<text dominant-baseline="central" text-anchor="middle" style="font-size:12px;font-family:Microsoft YaHei;" xml:space="preserve" y="6" transform="translate(986.4331 919.2)" fill="#B9B8CE">Day 18</text>
<text dominant-baseline="central" text-anchor="middle" style="font-size:12px;font-family:Microsoft YaHei;" xml:space="preserve" y="6" transform="translate(1039.5903 919.2)" fill="#B9B8CE">Day 19</text>
<text dominant-baseline="central" text-anchor="middle" style="font-size:12px;font-family:Microsoft YaHei;" xml:space="preserve" y="6" transform="translate(1092.7476 919.2)" fill="#B9B8CE">Day 20</text>
<text dominant-baseline="central" text-anchor="middle" style="font-size:12px;font-family:Microsoft YaHei;" xml:space="preserve" y="6" transform="translate(1145.9048 919.2)" fill="#B9B8CE">Day 21</text>
<text dominant-baseline="central" text-anchor="middle" style="font-size:12px;font-family:Microsoft YaHei;" xml:space="preserve" y="6" transform="translate(1199.0621 919.2)" fill="#B9B8CE">Day 22</text>
<text dominant-baseline="central" text-anchor="middle" style="font-size:12px;font-family:Microsoft YaHei;" xml:space="preserve" y="6" transform="translate(1252.2193 919.2)" fill="#B9B8CE">Day 23</text>
<text dominant-baseline="central" text-anchor="middle" style="font-size:12px;font-family:Microsoft YaHei;" xml:space="preserve" y="6" transform="translate(1305.3766 919.2)" fill="#B9B8CE">Day 24</text>
<text dominant-baseline="central" text-anchor="middle" style="font-size:12px;font-family:Microsoft YaHei;" xml:space="preserve" y="6" transform="translate(1358.5338 919.2)" fill="#B9B8CE">Day 25</text>
<text dominant-baseline="central" text-anchor="middle" style="font-size:12px;font-family:Microsoft YaHei;" xml:space="preserve" y="6" transform="translate(1411.691 919.2)" fill="#B9B8CE">Day 26</text>
<text dominant-baseline="central" text-anchor="middle" style="font-size:12px;font-family:Microsoft YaHei;" xml:space="preserve" y="6" transform="translate(1464.8483 919.2)" fill="#B9B8CE">Day 27</text>
<text dominant-baseline="central" text-anchor="middle" style="font-size:12px;font-family:Microsoft YaHei;" xml:space="preserve" y="6" transform="translate(1518.0055 919.2)" fill="#B9B8CE">Day 28</text>
<text dominant-baseline="central" text-anchor="middle" style="font-size:12px;font-family:Microsoft YaHei;" xml:space="preserve" y="6" transform="translate(1571.1628 919.2)" fill="#B9B8CE">Day 29</text>
<text dominant-baseline="central" text-anchor="middle" style="font-size:12px;font-family:Microsoft YaHei;" xml:space="preserve" y="6" transform="translate(1624.32 919.2)" fill="#B9B8CE">Day 30</text>
<g clip-path="url(#zr0-c0)">
<path d="M82.76 350.8907C82.76 350.8907 109.5643 349.3712 135.9172 345.0751C162.7215 340.7054 162.2155 336.8515 189.0745 333.5592C215.3727 330.3356 215.6625 332.0896 242.2317 330.3356C268.8197 328.5804 268.8135 326.5409 295.389 326.5409C321.9708 326.5409 322.5261 326.5409 348.5462 330.5114C375.6833 334.6522 374.6176 346.7885 401.7035 346.7885C427.7748 346.7885 429.0693 346.7885 454.8607 340.6434C482.2266 334.1231 481.1938 320.6924 508.0179 320.6924C534.351 320.6924 534.4657 329.5155 561.1752 337.4583C587.6229 345.3231 587.451 346.2244 614.3324 352.3076C640.6083 358.2538 640.7559 361.517 667.4897 361.517C693.9132 361.517 694.0379 357.3159 720.6469 357.3159C747.1952 357.3159 747.5705 357.3159 773.8041 359.4796C800.7278 361.7002 800.03 370.7443 826.9614 371.9511C853.1872 373.1263 853.5443 372.385 880.1186 373.1263C906.7015 373.8678 906.8173 374.9165 933.2759 374.9165C959.9746 374.9165 960.1956 367.5139 986.4331 367.5139C1013.3528 367.5139 1012.9959 381.8854 1039.5903 381.8854C1066.1532 381.8854 1065.7344 370.6546 1092.7476 367.7664C1118.8916 364.9712 1119.316 364.9712 1145.9048 364.9712C1172.4732 364.9712 1172.5598 366.8384 1199.062 366.8384C1225.7171 366.8384 1225.8928 365.3113 1252.2194 360.8196C1279.0501 356.2419 1278.4646 348.6996 1305.3766 348.6996C1331.6218 348.6996 1332.2537 348.6996 1358.5338 349.8968C1385.411 351.1211 1384.979 356.3381 1411.691 361.3578C1438.1362 366.3273 1438.1054 369.8752 1464.8483 369.8752C1491.2626 369.8752 1491.4436 369.6233 1518.0055 368.5463C1544.6008 367.4679 1544.7317 365.5643 1571.1627 365.5643C1597.8889 365.5643 1624.3199 374.0818 1624.3199 374.0818" fill="none" stroke="rgb(73,146,255)" stroke-width="2" stroke-linejoin="bevel"></path>
</g>
<g clip-path="url(#zr0-c1)">
<path d="M82.76 889.0633C82.76 889.0633 109.3149 892.243 135.9172 892.243C162.4721 892.243 162.5814 892.243 189.0745 892.1826C215.7387 892.1217 215.5676 886.1308 242.2317 886.1308C268.7248 886.1308 268.8508 886.2845 295.389 886.2845C322.008 886.2845 321.9672 884.2005 348.5462 882.1274C375.1244 880.0543 375.1585 880.4274 401.7035 877.9922C428.3158 875.5508 428.2258 874.4655 454.8607 872.3743C481.383 870.2919 481.5184 869.645 508.0179 869.645C534.6756 869.645 534.5091 876.0756 561.1752 876.0756C587.6663 876.0756 587.7449 874.1151 614.3324 874.1151C640.9021 874.1151 640.9165 874.1151 667.4897 874.3238C694.0738 874.5326 694.0657 875.8615 720.6469 875.8615C747.223 875.8615 747.2885 874.7302 773.8041 874.7302C800.4457 874.7302 800.326 878.2149 826.9614 880.0406C853.4832 881.8585 853.5311 882.0176 880.1186 882.0176C906.6884 882.0176 906.6989 881.9681 933.2759 881.6442C959.8562 881.3201 959.8525 880.771 986.4331 880.7216C1013.0097 880.6721 1013.0132 880.6721 1039.5903 880.6721C1066.1704 880.6721 1066.1774 881.4574 1092.7476 881.4574C1119.3346 881.4574 1119.3532 879.4091 1145.9048 879.4091C1172.5104 879.4091 1172.468 883.374 1199.062 883.374C1225.6252 883.374 1225.6625 882.1809 1252.2194 880.3536C1278.8198 878.5234 1278.7593 877.458 1305.3766 876.0591C1331.9165 874.6643 1331.9524 875.2327 1358.5338 874.6643C1385.1097 874.096 1385.1702 873.7856 1411.691 873.7856C1438.3275 873.7856 1438.211 878.1705 1464.8483 878.8325C1491.3683 879.4915 1491.4332 878.8862 1518.0055 879.4915C1544.5904 880.097 1544.5778 881.2542 1571.1627 881.2542C1597.735 881.2542 1624.3199 880.6172 1624.3199 880.6172" fill="none" stroke="rgb(124,255,178)" stroke-width="2" stroke-linejoin="bevel"></path>
</g>
<path d="M1 0A1 1 0 1 1 1 -0.0001" transform="matrix(2,0,0,2,82.76,350.8907)" fill="#4992ff"></path>
<path d="M1 0A1 1 0 1 1 1 -0.0001" transform="matrix(2,0,0,2,135.9172,345.0751)" fill="#4992ff"></path>
<path d="M1 0A1 1 0 1 1 1 -0.0001" transform="matrix(2,0,0,2,189.0745,333.5592)" fill="#4992ff"></path>
<path d="M1 0A1 1 0 1 1 1 -0.0001" transform="matrix(2,0,0,2,242.2317,330.3356)" fill="rgb(73,146,255)"></path>
<path d="M1 0A1 1 0 1 1 1 -0.0001" transform="matrix(2,0,0,2,295.389,326.5409)" fill="rgb(73,146,255)"></path>
<path d="M1 0A1 1 0 1 1 1 -0.0001" transform="matrix(2,0,0,2,348.5462,330.5114)" fill="rgb(73,146,255)"></path>
<path d="M1 0A1 1 0 1 1 1 -0.0001" transform="matrix(2,0,0,2,401.7035,346.7885)" fill="rgb(73,146,255)"></path>
<path d="M1 0A1 1 0 1 1 1 -0.0001" transform="matrix(2,0,0,2,454.8607,340.6434)" fill="rgb(73,146,255)"></path>
<path d="M1 0A1 1 0 1 1 1 -0.0001" transform="matrix(2,0,0,2,508.0179,320.6924)" fill="rgb(73,146,255)"></path>
<path d="M1 0A1 1 0 1 1 1 -0.0001" transform="matrix(2,0,0,2,561.1752,337.4583)" fill="rgb(73,146,255)"></path>
<path d="M1 0A1 1 0 1 1 1 -0.0001" transform="matrix(2,0,0,2,614.3324,352.3076)" fill="rgb(73,146,255)"></path>
<path d="M1 0A1 1 0 1 1 1 -0.0001" transform="matrix(2,0,0,2,667.4897,361.517)" fill="rgb(73,146,255)"></path>
<path d="M1 0A1 1 0 1 1 1 -0.0001" transform="matrix(2,0,0,2,720.6469,357.3159)" fill="rgb(73,146,255)"></path>
<path d="M1 0A1 1 0 1 1 1 -0.0001" transform="matrix(2,0,0,2,773.8041,359.4796)" fill="rgb(73,146,255)"></path>
<path d="M1 0A1 1 0 1 1 1 -0.0001" transform="matrix(2,0,0,2,826.9614,371.9511)" fill="rgb(73,146,255)"></path>
<path d="M1 0A1 1 0 1 1 1 -0.0001" transform="matrix(2,0,0,2,880.1186,373.1263)" fill="rgb(73,146,255)"></path>
<path d="M1 0A1 1 0 1 1 1 -0.0001" transform="matrix(2,0,0,2,933.2759,374.9165)" fill="rgb(73,146,255)"></path>
<path d="M1 0A1 1 0 1 1 1 -0.0001" transform="matrix(2,0,0,2,986.4331,367.5139)" fill="rgb(73,146,255)"></path>
<path d="M1 0A1 1 0 1 1 1 -0.0001" transform="matrix(2,0,0,2,1039.5903,381.8854)" fill="rgb(73,146,255)"></path>
<path d="M1 0A1 1 0 1 1 1 -0.0001" transform="matrix(2,0,0,2,1092.7476,367.7664)" fill="#4992ff"></path>
<path d="M1 0A1 1 0 1 1 1 -0.0001" transform="matrix(2,0,0,2,1145.9048,364.9712)" fill="rgb(73,146,255)"></path>
<path d="M1 0A1 1 0 1 1 1 -0.0001" transform="matrix(2,0,0,2,1199.062,366.8384)" fill="rgb(73,146,255)"></path>
<path d="M1 0A1 1 0 1 1 1 -0.0001" transform="matrix(2,0,0,2,1252.2194,360.8196)" fill="rgb(73,146,255)"></path>
<path d="M1 0A1 1 0 1 1 1 -0.0001" transform="matrix(2,0,0,2,1305.3766,348.6996)" fill="rgb(73,146,255)"></path>
<path d="M1 0A1 1 0 1 1 1 -0.0001" transform="matrix(2,0,0,2,1358.5338,349.8968)" fill="rgb(73,146,255)"></path>
<path d="M1 0A1 1 0 1 1 1 -0.0001" transform="matrix(2,0,0,2,1411.691,361.3578)" fill="rgb(73,146,255)"></path>
<path d="M1 0A1 1 0 1 1 1 -0.0001" transform="matrix(2,0,0,2,1464.8483,369.8752)" fill="rgb(73,146,255)"></path>
<path d="M1 0A1 1 0 1 1 1 -0.0001" transform="matrix(2,0,0,2,1518.0055,368.5463)" fill="rgb(73,146,255)"></path>
<path d="M1 0A1 1 0 1 1 1 -0.0001" transform="matrix(2,0,0,2,1571.1627,365.5643)" fill="rgb(73,146,255)"></path>
<path d="M1 0A1 1 0 1 1 1 -0.0001" transform="matrix(2,0,0,2,1624.3199,374.0818)" fill="rgb(73,146,255)"></path>
<path d="M1 0A1 1 0 1 1 1 -0.0001" transform="matrix(2,0,0,2,82.76,889.0633)" fill="#7cffb2"></path>
<path d="M1 0A1 1 0 1 1 1 -0.0001" transform="matrix(2,0,0,2,135.9172,892.243)" fill="#7cffb2"></path>
<path d="M1 0A1 1 0 1 1 1 -0.0001" transform="matrix(2,0,0,2,189.0745,892.1826)" fill="#7cffb2"></path>
<path d="M1 0A1 1 0 1 1 1 -0.0001" transform="matrix(2,0,0,2,242.2317,886.1308)" fill="rgb(124,255,178)"></path>
<path d="M1 0A1 1 0 1 1 1 -0.0001" transform="matrix(2,0,0,2,295.389,886.2845)" fill="rgb(124,255,178)"></path>
<path d="M1 0A1 1 0 1 1 1 -0.0001" transform="matrix(2,0,0,2,348.5462,882.1274)" fill="rgb(124,255,178)"></path>
<path d="M1 0A1 1 0 1 1 1 -0.0001" transform="matrix(2,0,0,2,401.7035,877.9922)" fill="rgb(124,255,178)"></path>
<path d="M1 0A1 1 0 1 1 1 -0.0001" transform="matrix(2,0,0,2,454.8607,872.3743)" fill="rgb(124,255,178)"></path>
<path d="M1 0A1 1 0 1 1 1 -0.0001" transform="matrix(2,0,0,2,508.0179,869.645)" fill="rgb(124,255,178)"></path>
<path d="M1 0A1 1 0 1 1 1 -0.0001" transform="matrix(2,0,0,2,561.1752,876.0756)" fill="rgb(124,255,178)"></path>
<path d="M1 0A1 1 0 1 1 1 -0.0001" transform="matrix(2,0,0,2,614.3324,874.1151)" fill="rgb(124,255,178)"></path>
<path d="M1 0A1 1 0 1 1 1 -0.0001" transform="matrix(2,0,0,2,667.4897,874.3238)" fill="rgb(124,255,178)"></path>
<path d="M1 0A1 1 0 1 1 1 -0.0001" transform="matrix(2,0,0,2,720.6469,875.8615)" fill="rgb(124,255,178)"></path>
<path d="M1 0A1 1 0 1 1 1 -0.0001" transform="matrix(2,0,0,2,773.8041,874.7302)" fill="rgb(124,255,178)"></path>
<path d="M1 0A1 1 0 1 1 1 -0.0001" transform="matrix(2,0,0,2,826.9614,880.0406)" fill="rgb(124,255,178)"></path>
<path d="M1 0A1 1 0 1 1 1 -0.0001" transform="matrix(2,0,0,2,880.1186,882.0176)" fill="rgb(124,255,178)"></path>
<path d="M1 0A1 1 0 1 1 1 -0.0001" transform="matrix(2,0,0,2,933.2759,881.6442)" fill="rgb(124,255,178)"></path>
<path d="M1 0A1 1 0 1 1 1 -0.0001" transform="matrix(2,0,0,2,986.4331,880.7216)" fill="rgb(124,255,178)"></path>
<path d="M1 0A1 1 0 1 1 1 -0.0001" transform="matrix(2,0,0,2,1039.5903,880.6721)" fill="rgb(124,255,178)"></path>
<path d="M1 0A1 1 0 1 1 1 -0.0001" transform="matrix(2,0,0,2,1092.7476,881.4574)" fill="#7cffb2"></path>
<path d="M1 0A1 1 0 1 1 1 -0.0001" transform="matrix(2,0,0,2,1145.9048,879.4091)" fill="rgb(124,255,178)"></path>
<path d="M1 0A1 1 0 1 1 1 -0.0001" transform="matrix(2,0,0,2,1199.062,883.374)" fill="rgb(124,255,178)"></path>
<path d="M1 0A1 1 0 1 1 1 -0.0001" transform="matrix(2,0,0,2,1252.2194,880.3536)" fill="rgb(124,255,178)"></path>
<path d="M1 0A1 1 0 1 1 1 -0.0001" transform="matrix(2,0,0,2,1305.3766,876.0591)" fill="rgb(124,255,178)"></path>
<path d="M1 0A1 1 0 1 1 1 -0.0001" transform="matrix(2,0,0,2,1358.5338,874.6643)" fill="rgb(124,255,178)"></path>
<path d="M1 0A1 1 0 1 1 1 -0.0001" transform="matrix(2,0,0,2,1411.691,873.7856)" fill="rgb(124,255,178)"></path>
<path d="M1 0A1 1 0 1 1 1 -0.0001" transform="matrix(2,0,0,2,1464.8483,878.8325)" fill="rgb(124,255,178)"></path>
<path d="M1 0A1 1 0 1 1 1 -0.0001" transform="matrix(2,0,0,2,1518.0055,879.4915)" fill="rgb(124,255,178)"></path>
<path d="M1 0A1 1 0 1 1 1 -0.0001" transform="matrix(2,0,0,2,1571.1627,881.2542)" fill="rgb(124,255,178)"></path>
<path d="M1 0A1 1 0 1 1 1 -0.0001" transform="matrix(2,0,0,2,1624.3199,880.6172)" fill="rgb(124,255,178)"></path>
<path d="M-5 -5l482.6641 0l0 22l-482.6641 0Z" transform="translate(609.668 45)" fill="rgb(0,0,0)" fill-opacity="0" stroke="#ccc" stroke-width="0"></path>
<path d="M0 7L25 7" transform="translate(610.668 44)" fill="#000" stroke="#4992ff" stroke-width="2" stroke-linecap="butt" stroke-miterlimit="10"></path>
<path d="M18.1 7A5.6 5.6 0 1 1 18.1 6.9994" transform="translate(610.668 44)" fill="#4992ff"></path>
<text dominant-baseline="central" text-anchor="start" style="font-size:12px;font-family:Microsoft YaHei;" xml:space="preserve" x="30" y="7" transform="translate(610.668 44)" fill="#B9B8CE">Xiongmao Gold Coin / Silver Coin</text>
<path d="M0 7L25 7" transform="translate(844.5234 44)" fill="#000" stroke="#7cffb2" stroke-width="2" stroke-linecap="butt" stroke-miterlimit="10"></path>
<path d="M18.1 7A5.6 5.6 0 1 1 18.1 6.9994" transform="translate(844.5234 44)" fill="#7cffb2"></path>
<text dominant-baseline="central" text-anchor="start" style="font-size:12px;font-family:Microsoft YaHei;" xml:space="preserve" x="30" y="7" transform="translate(844.5234 44)" fill="#B9B8CE">Xiongmao Silver Coin / Copper Coin</text>
<path d="M-70.0259 -5l140.0518 0l0 28l-140.0518 0Z" transform="translate(846 5)" fill="rgb(0,0,0)" fill-opacity="0" stroke="#ccc" stroke-width="0"></path>
<text dominant-baseline="central" text-anchor="middle" style="font-size:18px;font-family:Microsoft YaHei;font-weight:bold;" xml:space="preserve" y="9" transform="translate(846 5)" fill="#EEF1FA">PRE 熊猫币汇率</text>
<defs >
<clipPath id="zr0-c0">
<path d="M81 59l1544 0l0 853.2l-1544 0Z" fill="#000"></path>
</clipPath>
<clipPath id="zr0-c1">
<path d="M81 59l1544 0l0 853.2l-1544 0Z" fill="#000"></path>
</clipPath>
</defs>
</svg>